# File created by Blade
# Date/Time:  Wed Sep 24 19:53:44 2014
# Frame Rate: 120.000 fps
#------------------------------------------------------
:FULLY-SPECIFIED
:DEGREES
3339
root -6.043664 32.901011 -4.999532 8.085370 15.831651 -0.727618
Spine -12.030596 18.179830 0.907653
Head -7.344823 -7.718864 13.779153
LeftShoulder -20.661892 28.078288 23.229561
LeftArm 26.520736 -4.952652 -6.552665
LeftForeArm 30.810269 -0.000000 131.900162
LeftHand -14.830841 -0.000000 -26.934100
LeftHandThumb1 -26.253704 0.000000 33.147579
RightShoulder -21.118409 10.620200 -18.487881
RightArm -13.939075 -5.223358 75.016864
RightForeArm -24.557944 0.000000 21.883643
RightHand -8.856535 0.000000 8.533617
RightHandThumb1 -24.326973 -0.000000 -32.862282
LeftUpLeg -5.931482 -2.353792 5.580465
LeftLeg -1.376914 -0.000000 0.000000
LeftFoot -6.900508 1.736996 -18.193130
LeftToeBase 11.788699 -0.000000 -0.000000
RightUpLeg -2.979407 -16.864740 -2.083587
RightLeg 2.064461 -0.000000 -0.000000
RightFoot -6.540680 -7.818688 -11.659481
RightToeBase -0.289750 -0.000000 0.000000
3340
root -6.041184 32.900483 -5.011121 8.111117 15.827624 -0.719969
Spine -11.925995 17.988149 1.004398
Head -7.509494 -7.234395 13.897330
LeftShoulder -20.560509 28.371709 23.143551
LeftArm 26.816063 -3.698560 -6.442601
LeftForeArm 31.548466 -0.000000 132.456434
LeftHand -14.773638 -0.000000 -27.242895
LeftHandThumb1 -26.253704 0.000000 33.147579
RightShoulder -21.058473 10.672278 -18.406013
RightArm -13.799052 -5.379132 75.010975
RightForeArm -24.363115 -0.000000 21.865151
RightHand -8.967796 -0.000000 8.266119
RightHandThumb1 -24.326973 -0.000000 -32.862282
LeftUpLeg -5.959937 -2.306448 5.559644
LeftLeg -1.403854 -0.000000 0.000000
LeftFoot -6.857904 1.705130 -18.161700
LeftToeBase 11.607770 -0.000000 -0.000000
RightUpLeg -3.025126 -16.815590 -2.087834
RightLeg 2.068287 -0.000000 -0.000000
RightFoot -6.530330 -7.886785 -11.690033
RightToeBase -0.257680 -0.000000 0.000000
3341
root -6.039314 32.900378 -5.022596 8.132141 15.823972 -0.733083
Spine -11.830966 17.804118 1.124602
Head -7.684486 -6.764124 14.014494
LeftShoulder -20.554673 28.589715 23.014424
LeftArm 27.165500 -2.608835 -6.460448
LeftForeArm 32.083465 0.000000 132.860322
LeftHand -14.591949 -0.000000 -27.342762
LeftHandThumb1 -26.253704 0.000000 33.147579
RightShoulder -20.978982 10.753011 -18.353173
RightArm -13.743803 -5.447031 75.006546
RightForeArm -24.264889 -0.000000 21.900111
RightHand -8.787863 0.000000 8.397446
RightHandThumb1 -24.326973 -0.000000 -32.862282
LeftUpLeg -5.989163 -2.269960 5.562973
LeftLeg -1.435471 -0.000000 0.000000
LeftFoot -6.827701 1.685387 -18.172851
LeftToeBase 11.776390 -0.000000 -0.000000
RightUpLeg -3.119607 -16.936777 -2.062365
RightLeg 2.164557 -0.000000 -0.000000
RightFoot -6.573069 -7.811607 -11.727134
RightToeBase -0.274204 -0.000000 0.000000
3342
root -6.037477 32.899032 -5.036296 8.180735 15.795330 -0.725116
Spine -11.738028 17.653098 1.201124
Head -7.890504 -6.364349 14.104231
LeftShoulder -20.599132 28.776490 22.851941
LeftArm 27.482218 -1.755000 -6.597624
LeftForeArm 32.454250 0.000000 133.194724
LeftHand -14.389008 0.000000 -27.549231
LeftHandThumb1 -26.253704 0.000000 33.147579
RightShoulder -20.949514 10.817018 -18.327805
RightArm -13.688471 -5.414519 75.026729
RightForeArm -24.420945 -0.000000 21.981171
RightHand -8.702350 0.000000 8.528578
RightHandThumb1 -24.326973 -0.000000 -32.862282
LeftUpLeg -6.048222 -2.211149 5.541116
LeftLeg -1.446465 -0.000000 0.000000
LeftFoot -6.820713 1.661332 -18.139222
LeftToeBase 11.816037 -0.000000 -0.000000
RightUpLeg -3.160126 -16.825796 -2.068402
RightLeg 2.099121 -0.000000 -0.000000
RightFoot -6.548828 -7.868343 -11.690080
RightToeBase -0.209335 -0.000000 0.000000
3343
root -6.036091 32.898848 -5.049335 8.232722 15.754999 -0.730688
Spine -11.669981 17.521469 1.284952
Head -8.047496 -5.969458 14.200705
LeftShoulder -20.633675 28.919153 22.665138
LeftArm 27.702973 -0.972830 -6.757450
LeftForeArm 33.021356 -0.000000 133.540671
LeftHand -14.518725 -0.000000 -27.520977
LeftHandThumb1 -26.253704 0.000000 33.147579
RightShoulder -20.937000 10.814808 -18.296450
RightArm -13.533401 -5.466186 75.048831
RightForeArm -24.489215 -0.000000 21.991562
RightHand -8.883828 0.000000 8.353613
RightHandThumb1 -24.326973 -0.000000 -32.862282
LeftUpLeg -6.111250 -2.153867 5.531821
LeftLeg -1.456544 -0.000000 0.000000
LeftFoot -6.796455 1.656535 -18.135715
LeftToeBase 11.783730 -0.000000 -0.000000
RightUpLeg -3.278214 -16.873543 -2.047641
RightLeg 2.167720 -0.000000 -0.000000
RightFoot -6.567889 -7.804651 -11.755787
RightToeBase -0.231879 -0.000000 0.000000
3344
root -6.035081 32.898600 -5.061462 8.286904 15.682834 -0.741638
Spine -11.603409 17.411821 1.360064
Head -8.214221 -5.617951 14.294019
LeftShoulder -20.754196 29.050830 22.429594
LeftArm 27.902789 -0.366887 -6.971593
LeftForeArm 33.661288 0.000000 133.806597
LeftHand -14.390340 0.000000 -27.424635
LeftHandThumb1 -26.253704 0.000000 33.147579
RightShoulder -20.894429 10.884703 -18.269946
RightArm -13.472784 -5.554545 75.083765
RightForeArm -24.475196 -0.000000 22.008079
RightHand -8.836993 -0.000000 8.326345
RightHandThumb1 -24.326973 -0.000000 -32.862282
LeftUpLeg -6.165675 -2.071445 5.529872
LeftLeg -1.486372 -0.000000 0.000000
LeftFoot -6.836826 1.661380 -18.342031
LeftToeBase 12.103873 -0.000000 -0.000000
RightUpLeg -3.379236 -16.852667 -2.026681
RightLeg 2.185864 -0.000000 -0.000000
RightFoot -6.569354 -7.773625 -11.771345
RightToeBase -0.225793 -0.000000 0.000000
3345
root -6.034303 32.898024 -5.073566 8.353827 15.599538 -0.754562
Spine -11.553704 17.313239 1.419194
Head -8.338068 -5.324505 14.348103
LeftShoulder -20.896415 29.171050 22.188568
LeftArm 28.066831 0.098153 -7.248577
LeftForeArm 34.328436 -0.000000 134.060036
LeftHand -14.337383 -0.000000 -27.519509
LeftHandThumb1 -26.253704 0.000000 33.147579
RightShoulder -20.861078 10.950703 -18.255222
RightArm -13.434937 -5.604471 75.140037
RightForeArm -24.438115 -0.000000 22.042529
RightHand -8.736941 0.000000 8.464877
RightHandThumb1 -24.326973 -0.000000 -32.862282
LeftUpLeg -6.235896 -1.997410 5.528149
LeftLeg -1.497316 -0.000000 0.000000
LeftFoot -6.836494 1.668929 -18.355741
LeftToeBase 12.072495 -0.000000 -0.000000
RightUpLeg -3.484540 -16.785724 -2.001493
RightLeg 2.183108 -0.000000 -0.000000
RightFoot -6.550567 -7.761281 -11.782717
RightToeBase -0.181981 -0.000000 0.000000
3346
root -6.036667 32.897230 -5.087584 8.436782 15.517093 -0.793675
Spine -11.554082 17.281748 1.477760
Head -8.517024 -5.102376 14.456341
LeftShoulder -20.975668 29.294171 22.007007
LeftArm 28.196675 0.472185 -7.586758
LeftForeArm 34.944075 -0.000000 134.220334
LeftHand -14.263740 0.000000 -27.425665
LeftHandThumb1 -26.253704 0.000000 33.147579
RightShoulder -20.840540 10.949859 -18.255625
RightArm -13.404753 -5.622186 75.207458
RightForeArm -24.420885 -0.000000 22.077076
RightHand -8.733905 0.000000 8.662770
RightHandThumb1 -24.326973 -0.000000 -32.862282
LeftUpLeg -6.346592 -1.956674 5.559142
LeftLeg -1.464266 -0.000000 0.000000
LeftFoot -6.823933 1.709676 -18.110883
LeftToeBase 11.772298 -0.000000 -0.000000
RightUpLeg -3.619885 -16.726970 -1.937654
RightLeg 2.181344 -0.000000 -0.000000
RightFoot -6.532090 -7.747081 -11.826128
RightToeBase -0.189718 -0.000000 0.000000
3347
root -6.035555 32.896841 -5.097565 8.507922 15.406209 -0.807569
Spine -11.538428 17.295664 1.500828
Head -8.624777 -4.955492 14.511196
LeftShoulder -21.050089 29.363812 21.833940
LeftArm 28.271982 0.757915 -7.927229
LeftForeArm 35.550100 0.000000 134.362084
LeftHand -14.231057 -0.000000 -27.434046
LeftHandThumb1 -26.253704 0.000000 33.147579
RightShoulder -20.848584 10.950272 -18.257576
RightArm -13.402446 -5.508165 75.251112
RightForeArm -24.728282 -0.000000 22.156505
RightHand -8.783640 -0.000000 8.522428
RightHandThumb1 -24.326973 -0.000000 -32.862282
LeftUpLeg -6.407283 -1.911112 5.564542
LeftLeg -1.491517 -0.000000 0.000000
LeftFoot -6.901965 1.767257 -18.328579
LeftToeBase 11.994283 -0.000000 -0.000000
RightUpLeg -3.724336 -16.669723 -1.914640
RightLeg 2.166620 -0.000000 -0.000000
RightFoot -6.520646 -7.684688 -11.800059
RightToeBase -0.192872 -0.000000 0.000000
3348
root -6.033812 32.896476 -5.104262 8.549288 15.294957 -0.824489
Spine -11.510425 17.327490 1.527830
Head -8.755889 -4.811533 14.606217
LeftShoulder -21.060512 29.374745 21.693779
LeftArm 28.267476 1.023885 -8.235318
LeftForeArm 35.960689 -0.000000 134.469970
LeftHand -14.240199 -0.000000 -27.439138
LeftHandThumb1 -26.253704 0.000000 33.147579
RightShoulder -20.841146 10.939884 -18.257567
RightArm -13.393216 -5.504234 75.337531
RightForeArm -24.608798 -0.000000 22.150379
RightHand -8.757524 -0.000000 8.251005
RightHandThumb1 -24.326973 -0.000000 -32.862282
LeftUpLeg -6.421342 -1.912437 5.575088
LeftLeg -1.525603 -0.000000 0.000000
LeftFoot -6.879091 1.858030 -18.164566
LeftToeBase 11.823210 -0.000000 -0.000000
RightUpLeg -3.770079 -16.649375 -1.895107
RightLeg 2.100110 -0.000000 -0.000000
RightFoot -6.490468 -7.605438 -11.853615
RightToeBase -0.164867 -0.000000 0.000000
3349
root -6.030514 32.897044 -5.112415 8.614233 15.164908 -0.826345
Spine -11.507672 17.425132 1.503705
Head -8.886746 -4.744825 14.706597
LeftShoulder -21.147885 29.400245 21.533112
LeftArm 28.337804 1.147030 -8.472972
LeftForeArm 36.245032 0.000000 134.480955
LeftHand -14.271761 -0.000000 -27.478444
LeftHandThumb1 -26.253704 0.000000 33.147579
RightShoulder -20.874019 10.926923 -18.258885
RightArm -13.393503 -5.511834 75.398067
RightForeArm -24.554581 -0.000000 22.118298
RightHand -8.702527 -0.000000 8.690026
RightHandThumb1 -24.326973 -0.000000 -32.862282
LeftUpLeg -6.456976 -1.892349 5.568689
LeftLeg -1.572652 -0.000000 0.000000
LeftFoot -6.939567 1.952942 -18.412297
LeftToeBase 12.188082 -0.000000 -0.000000
RightUpLeg -3.857565 -16.650831 -1.887935
RightLeg 2.068574 -0.000000 -0.000000
RightFoot -6.469923 -7.478949 -11.868422
RightToeBase -0.224420 -0.000000 0.000000
